<svg width="60" height="60" viewBox="0 0 60 60" fill="none" xmlns="http://www.w3.org/2000/svg">
<path fill-rule="evenodd" clip-rule="evenodd" d="M60 60H0C0 60 21.0191 57.5904 24.6235 50.9295C27.9303 44.8167 27.1579 34.4084 27.0895 34.3358C27.0493 34.2955 27.0131 34.2552 26.9769 34.2149C26.8602 34.09 26.7476 33.9691 26.6229 33.8603C26.2568 33.538 25.9511 33.1068 25.6695 32.7039C25.4241 32.3573 25.2632 31.9382 25.0057 31.5836C24.7643 31.2532 24.4747 30.9671 24.2575 30.6045C24.181 30.4795 24.0563 30.3627 24.0241 30.2096C24.0684 30.1652 24.1126 30.129 24.1569 30.1008C24.3822 29.9436 24.6074 29.9436 24.8166 30.0282C25.1626 30.1652 25.4683 30.5279 25.6574 30.7656L25.6614 30.7697C25.6936 30.81 25.7218 30.8583 25.7499 30.9067C25.8465 31.0719 25.935 31.2452 26.124 31.2492C26.3493 31.0316 26.3654 30.5198 26.289 30.0323C26.2769 29.9517 26.2608 29.8711 26.2447 29.7905C26.1723 29.4601 25.9792 29.037 25.7821 28.63C25.6896 28.4325 25.593 28.2391 25.5085 28.0618C25.4563 27.953 25.3436 27.7153 25.239 27.4453C25.054 26.9658 24.9132 26.3855 25.2591 26.2767C25.5689 26.176 25.7378 26.5064 25.8947 26.7804C26.2487 27.401 26.4298 27.8845 26.7073 28.4607C26.7556 28.5615 26.8119 28.6944 26.8763 28.8194C26.9809 29.0249 27.0976 29.2102 27.2021 29.1861C27.3429 29.1578 27.3228 28.7025 27.2987 28.3116C27.2906 28.223 27.2866 28.1384 27.2786 28.0618C27.2464 27.6347 27.2021 27.1955 27.174 26.7965C27.1338 26.2687 26.8843 25.1847 27.4395 25.1565C27.7452 25.1404 27.8377 25.3257 27.9182 25.7529C28.067 26.5225 28.1234 27.4695 28.24 28.1988C28.2963 28.5413 28.3688 29.0893 28.59 29.1055C28.8153 29.1216 28.8837 28.6501 28.9561 28.36C29.0325 28.0537 29.113 27.7153 29.1733 27.3848C29.2497 26.9698 29.2538 25.5957 29.7928 25.6239C30.179 25.6401 30.1146 26.2203 30.0945 26.454C30.0583 26.8409 30.006 27.1874 29.9618 27.4574C29.9256 27.7032 29.8693 28.0094 29.821 28.3076C29.7365 28.8637 29.6882 29.3916 29.8612 29.448C30.002 29.4963 30.179 29.2868 30.352 29.0128C30.5008 28.771 30.6457 28.4809 30.7543 28.2713C30.9755 27.8563 31.3336 26.998 31.7479 27.2478C31.7962 27.2801 31.8284 27.3284 31.8364 27.3889C31.8847 27.6548 31.6272 28.1787 31.3456 28.7347C31.1364 29.1498 30.9112 29.585 30.7905 29.9396C30.7905 29.9436 30.7865 29.9517 30.7865 29.9557C30.6095 30.4836 30.6416 31.1646 30.5853 31.8214C30.5813 31.8818 30.5732 31.9423 30.5692 31.9987C30.5491 32.1679 30.533 32.3734 30.5129 32.587C30.4727 33.002 30.4164 33.4614 30.2997 33.7878C30.2554 33.9127 30.1871 34.0135 30.1146 34.09C30.1106 34.094 30.1106 34.1223 30.1146 34.1666C30.1509 34.501 29.7325 45.8805 33.3932 52.8959C36.2856 58.4487 60 60 60 60Z" fill="#3D3D3D"/>
<path d="M27.6044 19.2773C27.7211 19.3902 27.8096 19.507 27.894 19.6199C27.9745 19.7327 28.0509 19.8495 28.1153 19.9624C28.244 20.1921 28.3446 20.4217 28.425 20.6514C28.5819 21.1108 28.6463 21.5661 28.6503 22.0255C28.6503 22.4849 28.586 22.9402 28.4291 23.3996C28.3526 23.6293 28.2521 23.8589 28.1193 24.0886C28.055 24.2014 27.9825 24.3183 27.8981 24.4311C27.8136 24.544 27.7251 24.6608 27.6084 24.7736C27.4918 24.6608 27.3992 24.544 27.3188 24.4311C27.2343 24.3183 27.1619 24.2014 27.0975 24.0886C26.9688 23.8589 26.8682 23.6293 26.7878 23.3996C26.6309 22.9402 26.5665 22.4849 26.5665 22.0255C26.5665 21.5661 26.6349 21.1108 26.7918 20.6514C26.8682 20.4217 26.9688 20.1921 27.1015 19.9624C27.1659 19.8495 27.2383 19.7327 27.3228 19.6199C27.3992 19.507 27.4877 19.3942 27.6044 19.2773Z" fill="#1C442A"/>
<path d="M27.6044 13.0034C27.7211 13.1162 27.8096 13.233 27.894 13.3459C27.9745 13.4587 28.0509 13.5756 28.1153 13.6884C28.244 13.9181 28.3446 14.1478 28.425 14.3774C28.5819 14.8368 28.6463 15.2921 28.6503 15.7515C28.6503 16.2109 28.586 16.6662 28.4291 17.1256C28.3526 17.3553 28.2521 17.585 28.1193 17.8146C28.055 17.9275 27.9825 18.0443 27.8981 18.1572C27.8136 18.27 27.7251 18.3868 27.6084 18.4997C27.4918 18.3868 27.3992 18.27 27.3188 18.1572C27.2343 18.0443 27.1619 17.9275 27.0975 17.8146C26.9688 17.585 26.8682 17.3553 26.7878 17.1256C26.6309 16.6662 26.5665 16.2109 26.5665 15.7515C26.5665 15.2921 26.6349 14.8368 26.7918 14.3774C26.8682 14.1478 26.9688 13.9181 27.1015 13.6884C27.1659 13.5756 27.2383 13.4587 27.3228 13.3459C27.3992 13.229 27.4877 13.1162 27.6044 13.0034Z" fill="#009444"/>
<path d="M32.13 20.9859C31.9691 20.998 31.8243 21.0262 31.6875 21.0585C31.5507 21.0907 31.422 21.131 31.2973 21.1753C31.0519 21.264 30.8226 21.3728 30.6174 21.4977C30.2031 21.7435 29.8531 22.0497 29.5514 22.3963C29.2537 22.7428 29.0043 23.1337 28.8273 23.585C28.7388 23.8106 28.6664 24.0484 28.6141 24.3063C28.59 24.4352 28.5698 24.5722 28.5578 24.7133C28.5457 24.8543 28.5417 24.9994 28.5537 25.1646C28.7187 25.1525 28.8595 25.1243 29.0003 25.092C29.1371 25.0598 29.2658 25.0195 29.3905 24.9752C29.6399 24.8865 29.8652 24.7777 30.0703 24.6569C30.4847 24.411 30.8347 24.1048 31.1324 23.7583C31.4301 23.4077 31.6754 23.0168 31.8565 22.5695C31.945 22.3439 32.0174 22.1061 32.0697 21.8483C32.0938 21.7193 32.1139 21.5863 32.126 21.4453C32.134 21.2962 32.1421 21.1471 32.13 20.9859Z" fill="#1C442A"/>
<path d="M42.6777 17.0652C42.5208 17.0289 42.372 17.0168 42.2312 17.0047C42.0904 16.9967 41.9536 16.9967 41.8249 17.0047C41.5634 17.0208 41.314 17.0571 41.0807 17.1175C40.61 17.2344 40.1916 17.4238 39.8054 17.6696C39.4193 17.9154 39.0693 18.2216 38.7676 18.6004C38.6187 18.7898 38.4779 18.9993 38.3572 19.2331C38.2969 19.3499 38.2406 19.4748 38.1883 19.6038C38.136 19.7368 38.0917 19.8738 38.0555 20.0349C38.2164 20.0712 38.3613 20.0873 38.5021 20.0954C38.6429 20.1034 38.7796 20.1034 38.9084 20.0954C39.1698 20.0793 39.4193 20.043 39.6526 19.9826C40.1233 19.8657 40.5416 19.6763 40.9278 19.4265C41.314 19.1766 41.66 18.8744 41.9617 18.4957C42.1105 18.3063 42.2513 18.0967 42.372 17.863C42.4323 17.7462 42.4887 17.6212 42.541 17.4923C42.5973 17.3634 42.6456 17.2263 42.6777 17.0652Z" fill="#D4BE29"/>
<path d="M35.8069 15.7515C35.646 15.7636 35.5011 15.7918 35.3644 15.8241C35.2276 15.8563 35.0989 15.8966 34.9742 15.9409C34.7288 16.0296 34.4995 16.1384 34.2943 16.2633C33.88 16.5091 33.53 16.8153 33.2323 17.1619C32.9346 17.5084 32.6852 17.8993 32.5082 18.3506C32.4197 18.5762 32.3473 18.814 32.295 19.0759C32.2708 19.2048 32.2507 19.3418 32.2387 19.4829C32.2266 19.6239 32.2226 19.769 32.2387 19.9342C32.4036 19.9221 32.5444 19.8939 32.6852 19.8617C32.822 19.8294 32.9507 19.7891 33.0754 19.7448C33.3248 19.6561 33.5501 19.5474 33.7552 19.4224C34.1696 19.1766 34.5196 18.8704 34.8173 18.5238C35.115 18.1733 35.3603 17.7824 35.5414 17.3351C35.6299 17.1095 35.7023 16.8717 35.7546 16.6138C35.7787 16.4849 35.7988 16.3519 35.8109 16.2109C35.8149 16.0618 35.823 15.9127 35.8069 15.7515Z" fill="#009444"/>
<path d="M31.1002 15.7515C30.9553 15.8241 30.8347 15.9046 30.718 15.9893C30.6054 16.0739 30.5008 16.1585 30.4042 16.2472C30.2111 16.4245 30.0462 16.6138 29.9014 16.8073C29.6117 17.1941 29.4066 17.6091 29.2658 18.0484C29.125 18.4836 29.0485 18.9429 29.0566 19.4265C29.0606 19.6682 29.0847 19.9181 29.1411 20.176C29.1692 20.3049 29.2014 20.4379 29.2457 20.5709C29.2899 20.7038 29.3422 20.8408 29.4186 20.9859C29.5635 20.9134 29.6882 20.8328 29.8008 20.7482C29.9134 20.6635 30.018 20.5789 30.1186 20.4903C30.3117 20.313 30.4807 20.1236 30.6215 19.9302C30.9111 19.5433 31.1122 19.1243 31.253 18.6891C31.3938 18.2539 31.4703 17.7945 31.4622 17.311C31.4582 17.0692 31.4341 16.8194 31.3777 16.5615C31.3496 16.4325 31.3174 16.2995 31.2731 16.1666C31.2289 16.0336 31.1766 15.8966 31.1002 15.7515Z" fill="#006838"/>
<path d="M34.4833 11.6414C34.3304 11.6978 34.2017 11.7663 34.077 11.8348C33.9563 11.9034 33.8396 11.9799 33.735 12.0565C33.5218 12.2096 33.3368 12.3788 33.1718 12.5561C32.842 12.9107 32.5925 13.2976 32.3995 13.7166C32.2104 14.1357 32.0817 14.579 32.0334 15.0585C32.0092 15.3003 32.0052 15.5501 32.0294 15.812C32.0414 15.945 32.0615 16.078 32.0897 16.215C32.1179 16.356 32.1541 16.497 32.2144 16.6502C32.3673 16.5937 32.496 16.5293 32.6207 16.4567C32.7414 16.3882 32.8581 16.3117 32.9626 16.2351C33.1759 16.082 33.3609 15.9128 33.5258 15.7355C33.8557 15.3809 34.1051 14.994 34.2942 14.5749C34.4833 14.1559 34.608 13.7126 34.6562 13.2291C34.6804 12.9873 34.6844 12.7375 34.6603 12.4755C34.6482 12.3426 34.6281 12.2096 34.5999 12.0726C34.5758 11.9356 34.5396 11.7946 34.4833 11.6414Z" fill="#D4BE29"/>
<path d="M30.6696 9.69912C30.5329 9.78374 30.4162 9.87642 30.3116 9.9691C30.207 10.0618 30.1105 10.1585 30.022 10.2552C29.845 10.4486 29.6961 10.6501 29.5674 10.8556C29.314 11.2666 29.149 11.7018 29.0444 12.1451C28.9439 12.5923 28.9077 13.0517 28.9559 13.5353C28.9801 13.777 29.0283 14.0228 29.1048 14.2727C29.145 14.3976 29.1893 14.5265 29.2456 14.6555C29.3019 14.7844 29.3663 14.9174 29.4548 15.0544C29.5956 14.9698 29.7082 14.8771 29.8168 14.7844C29.9214 14.6917 30.0179 14.595 30.1105 14.4983C30.2875 14.3049 30.4363 14.1034 30.565 13.8979C30.8185 13.4869 30.9834 13.0517 31.084 12.6044C31.1846 12.1571 31.2208 11.6937 31.1685 11.2142C31.1443 10.9725 31.0961 10.7267 31.0196 10.4768C30.9834 10.3519 30.9351 10.223 30.8828 10.094C30.8185 9.9691 30.7541 9.83612 30.6696 9.69912Z" fill="#D4BE29"/>
<path d="M40.8072 21.0866C40.6584 21.0181 40.5216 20.9698 40.3848 20.9295C40.248 20.8892 40.1153 20.861 39.9865 20.8408C39.7291 20.7965 39.4797 20.7804 39.2343 20.7844C38.7515 20.7965 38.297 20.8892 37.8665 21.0423C37.4361 21.1995 37.0298 21.4171 36.6516 21.7193C36.4626 21.8724 36.2816 22.0457 36.1126 22.2471C36.0281 22.3479 35.9436 22.4567 35.8672 22.5735C35.7867 22.6904 35.7103 22.8153 35.646 22.9644C35.7948 23.0369 35.9316 23.0813 36.0683 23.1216C36.2051 23.1618 36.3379 23.1901 36.4666 23.2102C36.7241 23.2545 36.9775 23.2706 37.2189 23.2666C37.7016 23.2545 38.1562 23.1618 38.5826 23.0047C39.013 22.8475 39.4193 22.6259 39.7975 22.3237C39.9865 22.1706 40.1676 21.9973 40.3365 21.7999C40.421 21.6991 40.5055 21.5903 40.5819 21.4735C40.6664 21.3566 40.7428 21.2317 40.8072 21.0866Z" fill="#009444"/>
<path d="M37.0217 19.37C36.8608 19.3418 36.716 19.3378 36.5752 19.3378C36.4344 19.3378 36.2976 19.3459 36.1689 19.362C35.9074 19.3902 35.662 19.4426 35.4327 19.5151C34.9701 19.6602 34.5598 19.8737 34.1897 20.1397C33.8196 20.4097 33.4897 20.732 33.2081 21.1269C33.0673 21.3244 32.9426 21.542 32.834 21.7797C32.7817 21.9006 32.7294 22.0255 32.6851 22.1625C32.6409 22.2995 32.6047 22.4406 32.5805 22.6017C32.7414 22.6299 32.8863 22.634 33.0311 22.638C33.1719 22.638 33.3087 22.6299 33.4374 22.6138C33.6989 22.5856 33.9443 22.5332 34.1736 22.4607C34.6362 22.3156 35.0425 22.1021 35.4126 21.8321C35.7827 21.5621 36.1126 21.2357 36.3901 20.8408C36.5309 20.6434 36.6556 20.4258 36.7643 20.188C36.8206 20.0671 36.8688 19.9422 36.9131 19.8093C36.9573 19.6722 36.9976 19.5312 37.0217 19.37Z" fill="#006838"/>
<path d="M39.7451 14.2768C39.5842 14.2848 39.4394 14.309 39.2986 14.3412C39.1618 14.3735 39.0291 14.4097 38.9044 14.45C38.6549 14.5346 38.4297 14.6394 38.2165 14.7563C37.7981 14.994 37.4401 15.2922 37.1343 15.6347C36.8286 15.9772 36.5752 16.3641 36.3861 16.8073C36.2936 17.0289 36.2171 17.2707 36.1608 17.5246C36.1327 17.6535 36.1125 17.7865 36.0965 17.9275C36.0844 18.0686 36.0763 18.2136 36.0844 18.3788C36.2493 18.3708 36.3901 18.3466 36.5309 18.3144C36.6677 18.2821 36.8004 18.2459 36.9252 18.2056C37.1746 18.1209 37.4039 18.0162 37.613 17.8993C38.0314 17.6616 38.3854 17.3634 38.6912 17.0209C38.9929 16.6784 39.2463 16.2915 39.4354 15.8443C39.5279 15.6226 39.6043 15.3809 39.6607 15.127C39.6888 14.998 39.7089 14.8651 39.725 14.724C39.7492 14.583 39.7572 14.4379 39.7451 14.2768Z" fill="#D4BE29"/>
<path d="M38.9203 10.4647C38.7594 10.4889 38.6186 10.5292 38.4859 10.5776C38.3531 10.6219 38.2284 10.6743 38.1077 10.7307C37.8704 10.8435 37.6531 10.9684 37.456 11.1095C37.0618 11.3915 36.744 11.726 36.4745 12.0967C36.209 12.4674 35.9958 12.8825 35.855 13.3459C35.7866 13.5796 35.7343 13.8213 35.7061 14.0833C35.6941 14.2162 35.686 14.3492 35.686 14.4903C35.686 14.6313 35.6941 14.7804 35.7222 14.9416C35.8831 14.9174 36.0239 14.8771 36.1607 14.8328C36.2934 14.7884 36.4222 14.7361 36.5388 14.6837C36.7762 14.5708 36.9934 14.4459 37.1905 14.3049C37.5807 14.0228 37.9026 13.6884 38.1681 13.3136C38.4336 12.9389 38.6428 12.5279 38.7836 12.0645C38.8519 11.8307 38.9042 11.589 38.9324 11.3271C38.9445 11.1941 38.9525 11.0611 38.9525 10.9201C38.9525 10.771 38.9485 10.6259 38.9203 10.4647Z" fill="#F9ED32"/>
<path d="M34.6321 7.06787C34.4792 7.12026 34.3465 7.18473 34.2218 7.25323C34.0971 7.32173 33.9844 7.39024 33.8758 7.4668C33.6586 7.61589 33.4695 7.7811 33.3006 7.95034C32.9627 8.29688 32.7012 8.67969 32.5041 9.09071C32.3069 9.50172 32.1661 9.94497 32.1058 10.4245C32.0776 10.6663 32.0696 10.9161 32.0857 11.178C32.0937 11.311 32.1098 11.444 32.138 11.585C32.1621 11.726 32.1983 11.8671 32.2506 12.0202C32.4035 11.9678 32.5362 11.9033 32.6609 11.8389C32.7857 11.7704 32.9023 11.7019 33.0109 11.6253C33.2282 11.4762 33.4172 11.311 33.5862 11.1417C33.9241 10.7952 34.1816 10.4124 34.3827 9.99736C34.5798 9.58231 34.7166 9.14309 34.7769 8.65954C34.8051 8.41777 34.8131 8.16794 34.797 7.90602C34.789 7.77304 34.7729 7.64007 34.7488 7.49903C34.7166 7.36203 34.6844 7.22099 34.6321 7.06787Z" fill="#F9ED32"/>
<path d="M27.7933 6.66884C27.6686 6.77361 27.5721 6.88241 27.4796 6.9912C27.3911 7.1 27.3066 7.2088 27.2342 7.3176C27.0894 7.53519 26.9727 7.75682 26.8761 7.98247C26.6871 8.42975 26.5865 8.88106 26.5543 9.3364C26.5221 9.79174 26.5543 10.2551 26.675 10.7226C26.7353 10.9563 26.8198 11.194 26.9325 11.4318C26.9888 11.5527 27.0531 11.6695 27.1296 11.7904C27.206 11.9113 27.2865 12.0322 27.3951 12.1531C27.5198 12.0483 27.6204 11.9395 27.7129 11.8307C27.8054 11.7219 27.8859 11.6131 27.9583 11.5043C28.1031 11.2867 28.2238 11.0651 28.3163 10.8394C28.5054 10.3921 28.6059 9.94084 28.6381 9.4855C28.6703 9.03016 28.6341 8.56676 28.5134 8.09933C28.4531 7.86562 28.3686 7.62787 28.256 7.39013C28.1996 7.26924 28.1353 7.15239 28.0629 7.0315C27.9824 6.91061 27.902 6.78973 27.7933 6.66884Z" fill="#F9ED32"/>
<path d="M27.7933 0C27.6686 0.104768 27.5721 0.213566 27.4796 0.322364C27.3911 0.431162 27.3066 0.53996 27.2342 0.648758C27.0894 0.866353 26.9727 1.08798 26.8761 1.31363C26.6871 1.76091 26.5865 2.21222 26.5543 2.66756C26.5221 3.1229 26.5543 3.5863 26.675 4.05373C26.7353 4.28744 26.8198 4.52519 26.9325 4.76293C26.9888 4.88381 27.0531 5.00067 27.1296 5.12156C27.206 5.24244 27.2865 5.36333 27.3951 5.48422C27.5198 5.37945 27.6204 5.27065 27.7129 5.16185C27.8054 5.05306 27.8859 4.94426 27.9583 4.83546C28.1031 4.61786 28.2238 4.39624 28.3163 4.17058C28.5054 3.7233 28.6059 3.272 28.6381 2.81666C28.6703 2.36132 28.6341 1.89792 28.5134 1.43049C28.4531 1.19678 28.3686 0.959033 28.256 0.72129C28.1996 0.600403 28.1353 0.483546 28.0629 0.36266C27.9824 0.241773 27.902 0.120887 27.7933 0Z" fill="#F9ED32"/>
<path d="M44.3352 12.7857C44.1743 12.7736 44.0254 12.7817 43.8846 12.7938C43.7438 12.8059 43.6111 12.83 43.4823 12.8542C43.2249 12.9066 42.9875 12.9832 42.7623 13.0759C42.3157 13.2612 41.9295 13.5151 41.5836 13.8133C41.2376 14.1155 40.9399 14.4701 40.6986 14.8891C40.5779 15.0987 40.4733 15.3243 40.3888 15.5742C40.3446 15.6991 40.3084 15.828 40.2762 15.9691C40.244 16.1061 40.2199 16.2511 40.2118 16.4163C40.3767 16.4284 40.5216 16.4204 40.6624 16.4083C40.8032 16.3962 40.9359 16.3761 41.0646 16.3478C41.3221 16.2955 41.5594 16.2189 41.7847 16.1262C42.2313 15.9409 42.6174 15.687 42.9634 15.3848C43.3053 15.0826 43.6071 14.728 43.8444 14.3089C43.9651 14.0994 44.0697 13.8737 44.1582 13.6239C44.2024 13.499 44.2386 13.37 44.2708 13.233C44.299 13.092 44.3231 12.9469 44.3352 12.7857Z" fill="#F9ED32"/>
<path d="M46.6564 18.4271C46.5076 18.3586 46.3668 18.3183 46.23 18.2821C46.0932 18.2458 45.9605 18.2216 45.8318 18.2015C45.5703 18.1652 45.3209 18.1531 45.0795 18.1612C44.5968 18.1813 44.1462 18.282 43.7198 18.4473C43.2934 18.6125 42.8911 18.8422 42.521 19.1524C42.336 19.3096 42.159 19.4869 41.994 19.6884C41.9095 19.7891 41.8291 19.9019 41.7527 20.0188C41.6762 20.1397 41.6038 20.2646 41.5394 20.4137C41.6883 20.4822 41.8291 20.5265 41.9659 20.5628C42.1026 20.599 42.2354 20.6272 42.3641 20.6434C42.6256 20.6837 42.875 20.6917 43.1164 20.6837C43.5991 20.6635 44.0497 20.5587 44.4761 20.3935C44.9025 20.2283 45.3048 19.9986 45.6749 19.6884C45.8599 19.5312 46.0369 19.3539 46.2019 19.1524C46.2863 19.0517 46.3668 18.9389 46.4432 18.822C46.5197 18.7052 46.5921 18.5802 46.6564 18.4271Z" fill="#F9ED32"/>
<path d="M23.119 20.9859C23.2799 20.998 23.4247 21.0262 23.5615 21.0585C23.6983 21.0907 23.827 21.131 23.9517 21.1753C24.1971 21.264 24.4264 21.3728 24.6316 21.4977C25.0459 21.7435 25.3959 22.0497 25.6976 22.3963C25.9953 22.7428 26.2447 23.1337 26.4217 23.585C26.5102 23.8106 26.5826 24.0484 26.6349 24.3063C26.659 24.4352 26.6792 24.5722 26.6912 24.7133C26.7033 24.8543 26.7073 24.9994 26.6953 25.1646C26.5303 25.1525 26.3895 25.1243 26.2487 25.092C26.1119 25.0598 25.9832 25.0195 25.8585 24.9752C25.6091 24.8865 25.3838 24.7777 25.1787 24.6569C24.7643 24.411 24.4143 24.1048 24.1166 23.7583C23.819 23.4077 23.5736 23.0168 23.3925 22.5695C23.304 22.3439 23.2316 22.1061 23.1793 21.8483C23.1552 21.7193 23.1351 21.5863 23.123 21.4453C23.111 21.2962 23.1069 21.1471 23.119 20.9859Z" fill="#1C442A"/>
<path d="M19.2047 27.6629C19.3374 27.5702 19.4661 27.5017 19.5949 27.4413C19.7236 27.3808 19.8483 27.3325 19.973 27.2881C20.2224 27.2035 20.4638 27.1471 20.7052 27.1108C21.1839 27.0423 21.6465 27.0625 22.097 27.1471C22.5476 27.2317 22.9821 27.3808 23.4045 27.6186C23.6136 27.7394 23.8188 27.8805 24.0199 28.0497C24.1205 28.1343 24.2171 28.227 24.3176 28.3318C24.4142 28.4366 24.5107 28.5454 24.5992 28.6824C24.4665 28.775 24.3377 28.8435 24.209 28.904C24.0803 28.9644 23.9556 29.0168 23.8309 29.0571C23.5815 29.1417 23.3401 29.1981 23.0987 29.2344C22.62 29.3029 22.1574 29.2828 21.7068 29.1981C21.2563 29.1135 20.8218 28.9604 20.3994 28.7227C20.1902 28.6018 19.9811 28.4607 19.7839 28.2915C19.6834 28.2069 19.5828 28.1142 19.4863 28.0094C19.3897 27.9087 19.2932 27.7959 19.2047 27.6629Z" fill="#1C442A"/>
<path d="M12.5671 17.0652C12.724 17.0289 12.8728 17.0168 13.0136 17.0047C13.1544 16.9967 13.2912 16.9967 13.4199 17.0047C13.6814 17.0208 13.9308 17.0571 14.1641 17.1175C14.6348 17.2344 15.0531 17.4238 15.4393 17.6696C15.8255 17.9154 16.1755 18.2216 16.4772 18.6004C16.6261 18.7898 16.7669 18.9993 16.8875 19.2331C16.9479 19.3499 17.0042 19.4748 17.0565 19.6038C17.1088 19.7368 17.153 19.8738 17.1892 20.0349C17.0283 20.0712 16.8835 20.0873 16.7427 20.0954C16.6019 20.1034 16.4651 20.1034 16.3324 20.0954C16.0709 20.0793 15.8215 20.043 15.5882 19.9826C15.1175 19.8657 14.6991 19.6763 14.313 19.4265C13.9268 19.1766 13.5808 18.8744 13.2791 18.4957C13.1303 18.3063 12.9895 18.0967 12.8688 17.863C12.8084 17.7462 12.7521 17.6212 12.6998 17.4923C12.6475 17.3634 12.6033 17.2263 12.5671 17.0652Z" fill="#D4BE29"/>
<path d="M9.90401 22.4124C10.0448 22.3278 10.1776 22.2674 10.3063 22.215C10.439 22.1626 10.5637 22.1183 10.6925 22.082C10.9459 22.0095 11.1913 21.9692 11.4327 21.949C11.9154 21.9087 12.374 21.9531 12.8205 22.0619C13.263 22.1707 13.6935 22.348 14.0998 22.6059C14.3049 22.7348 14.5021 22.892 14.6911 23.0733C14.7877 23.166 14.8802 23.2627 14.9727 23.3715C15.0653 23.4803 15.1538 23.5971 15.2342 23.7382C15.0934 23.8228 14.9607 23.8832 14.8319 23.9396C14.6992 23.992 14.5705 24.0364 14.4457 24.0726C14.1923 24.1452 13.9469 24.1854 13.7056 24.2096C13.2228 24.2499 12.7642 24.2056 12.3217 24.0928C11.8792 23.9799 11.4488 23.8067 11.0425 23.5447C10.8373 23.4158 10.6402 23.2627 10.4511 23.0813C10.3546 22.9887 10.262 22.892 10.1695 22.7832C10.073 22.6663 9.98446 22.5535 9.90401 22.4124Z" fill="#D4BE29"/>
<path d="M19.438 15.7515C19.5989 15.7636 19.7437 15.7918 19.8805 15.8241C20.0173 15.8563 20.146 15.8966 20.2707 15.9409C20.5161 16.0296 20.7454 16.1384 20.9506 16.2633C21.3649 16.5091 21.7149 16.8153 22.0126 17.1619C22.3103 17.5084 22.5597 17.8993 22.7367 18.3506C22.8252 18.5762 22.8976 18.814 22.9499 19.0759C22.974 19.2048 22.9942 19.3418 23.0062 19.4829C23.0183 19.6239 23.0223 19.769 23.0062 19.9342C22.8413 19.9221 22.7005 19.8939 22.5597 19.8617C22.4229 19.8294 22.2942 19.7891 22.1695 19.7448C21.9201 19.6561 21.6948 19.5474 21.4896 19.4224C21.0753 19.1766 20.7253 18.8704 20.4276 18.5238C20.1299 18.1733 19.8845 17.7824 19.7035 17.3351C19.615 17.1095 19.5426 16.8717 19.4903 16.6138C19.4662 16.4849 19.446 16.3519 19.434 16.2109C19.4299 16.0618 19.4259 15.9127 19.438 15.7515Z" fill="#009444"/>
<path d="M24.1448 15.7515C24.2897 15.8241 24.4103 15.9046 24.527 15.9893C24.6396 16.0739 24.7442 16.1585 24.8408 16.2472C25.0339 16.4245 25.1988 16.6138 25.3436 16.8073C25.6333 17.1941 25.8384 17.6091 25.9792 18.0484C26.12 18.4836 26.1965 18.9429 26.1884 19.4265C26.1844 19.6682 26.1603 19.9181 26.1039 20.176C26.0758 20.3049 26.0436 20.4379 25.9993 20.5709C25.9551 20.7038 25.9028 20.8408 25.8264 20.9859C25.6815 20.9134 25.5568 20.8328 25.4442 20.7482C25.3316 20.6635 25.227 20.5789 25.1264 20.4903C24.9333 20.313 24.7643 20.1236 24.6235 19.9302C24.3339 19.5433 24.1328 19.1243 23.992 18.6891C23.8512 18.2539 23.7747 17.7945 23.7828 17.311C23.7868 17.0692 23.8109 16.8194 23.8673 16.5615C23.8954 16.4325 23.9276 16.2995 23.9719 16.1666C24.0201 16.0336 24.0684 15.8966 24.1448 15.7515Z" fill="#006838"/>
<path d="M20.7656 11.6414C20.9184 11.6978 21.0472 11.7663 21.1719 11.8348C21.2925 11.9034 21.4092 11.9799 21.5138 12.0565C21.727 12.2096 21.9121 12.3788 22.077 12.5561C22.4069 12.9107 22.6563 13.2976 22.8494 13.7166C23.0384 14.1357 23.1672 14.579 23.2154 15.0585C23.2396 15.3003 23.2436 15.5501 23.2195 15.812C23.2074 15.945 23.1873 16.078 23.1591 16.215C23.131 16.356 23.0948 16.497 23.0344 16.6502C22.8816 16.5937 22.7528 16.5293 22.6281 16.4567C22.5034 16.3882 22.3908 16.3117 22.2862 16.2351C22.073 16.082 21.8879 15.9128 21.723 15.7355C21.3931 15.3809 21.1437 14.994 20.9546 14.5749C20.7656 14.1559 20.6409 13.7126 20.5926 13.2291C20.5684 12.9873 20.5644 12.7375 20.5886 12.4755C20.6006 12.3426 20.6207 12.2096 20.6489 12.0726C20.673 11.9356 20.7052 11.7946 20.7656 11.6414Z" fill="#D4BE29"/>
<path d="M24.5793 9.69912C24.7161 9.78374 24.8327 9.87642 24.9373 9.9691C25.0419 10.0618 25.1385 10.1585 25.227 10.2552C25.404 10.4486 25.5528 10.6501 25.6815 10.8556C25.935 11.2666 26.0999 11.7018 26.2045 12.1451C26.3051 12.5923 26.3413 13.0517 26.293 13.5353C26.2689 13.777 26.2206 14.0228 26.1442 14.2727C26.1039 14.3976 26.0597 14.5265 26.0034 14.6555C25.947 14.7844 25.8827 14.9174 25.7942 15.0544C25.6534 14.9698 25.5407 14.8771 25.4321 14.7844C25.3275 14.6917 25.231 14.595 25.1385 14.4983C24.9615 14.3049 24.8126 14.1034 24.6839 13.8979C24.4304 13.4869 24.2655 13.0517 24.1649 12.6044C24.0644 12.1571 24.0282 11.6937 24.0805 11.2142C24.1046 10.9725 24.1529 10.7267 24.2293 10.4768C24.2655 10.3519 24.3138 10.223 24.3701 10.094C24.4264 9.9691 24.4908 9.83612 24.5793 9.69912Z" fill="#D4BE29"/>
<path d="M14.4378 21.0866C14.5866 21.0181 14.7234 20.9698 14.8602 20.9295C14.997 20.8892 15.1297 20.861 15.2584 20.8408C15.5159 20.7965 15.7653 20.7804 16.0107 20.7844C16.4934 20.7965 16.948 20.8892 17.3785 21.0423C17.8089 21.1995 18.2152 21.4171 18.5933 21.7193C18.7824 21.8724 18.9634 22.0457 19.1324 22.2471C19.2169 22.3479 19.3014 22.4567 19.3778 22.5735C19.4582 22.6904 19.5347 22.8153 19.599 22.9644C19.4502 23.0369 19.3134 23.0813 19.1766 23.1216C19.0399 23.1618 18.9071 23.1901 18.7784 23.2102C18.5169 23.2545 18.2675 23.2706 18.0261 23.2666C17.5434 23.2545 17.0888 23.1618 16.6624 23.0047C16.232 22.8475 15.8257 22.6259 15.4475 22.3237C15.2584 22.1706 15.0774 21.9973 14.9085 21.7999C14.824 21.6991 14.7395 21.5903 14.6631 21.4735C14.5826 21.3566 14.5062 21.2317 14.4378 21.0866Z" fill="#009444"/>
<path d="M18.2232 19.37C18.3841 19.3418 18.5289 19.3378 18.6697 19.3378C18.8105 19.3378 18.9473 19.3459 19.076 19.362C19.3375 19.3902 19.5829 19.4426 19.8122 19.5151C20.2748 19.6602 20.6852 19.8737 21.0553 20.1397C21.4254 20.4097 21.7552 20.732 22.0368 21.1269C22.1776 21.3244 22.3023 21.542 22.4109 21.7797C22.4632 21.9006 22.5155 22.0255 22.5598 22.1625C22.604 22.2995 22.6402 22.4406 22.6644 22.6017C22.5035 22.6299 22.3587 22.634 22.2138 22.638C22.073 22.638 21.9363 22.6299 21.8075 22.6138C21.546 22.5856 21.3007 22.5332 21.0714 22.4607C20.6087 22.3156 20.2024 22.1021 19.8323 21.8321C19.4622 21.5621 19.1324 21.2357 18.8548 20.8408C18.714 20.6434 18.5893 20.4258 18.4807 20.188C18.4244 20.0671 18.3761 19.9422 18.3318 19.8093C18.2876 19.6722 18.2473 19.5312 18.2232 19.37Z" fill="#006838"/>
<path d="M15.4997 14.2768C15.6606 14.2848 15.8054 14.309 15.9462 14.3412C16.083 14.3735 16.2158 14.4097 16.3405 14.45C16.5899 14.5346 16.8152 14.6394 17.0284 14.7563C17.4467 14.994 17.8048 15.2922 18.1105 15.6347C18.4162 15.9772 18.6697 16.3641 18.8587 16.8073C18.9512 17.0289 19.0277 17.2707 19.084 17.5246C19.1122 17.6535 19.1323 17.7865 19.1484 17.9275C19.1604 18.0686 19.1685 18.2136 19.1604 18.3788C18.9955 18.3708 18.8547 18.3466 18.7139 18.3144C18.5771 18.2821 18.4444 18.2459 18.3197 18.2056C18.0703 18.1209 17.841 18.0162 17.6318 17.8993C17.2134 17.6616 16.8594 17.3634 16.5537 17.0209C16.252 16.6784 15.9985 16.2915 15.8095 15.8443C15.7169 15.6226 15.6405 15.3809 15.5842 15.127C15.556 14.998 15.5359 14.8651 15.5198 14.724C15.4957 14.583 15.4876 14.4379 15.4997 14.2768Z" fill="#D4BE29"/>
<path d="M16.3285 10.4647C16.4894 10.4889 16.6302 10.5292 16.763 10.5776C16.8957 10.6219 17.0204 10.6743 17.1411 10.7307C17.3785 10.8435 17.5957 10.9684 17.7928 11.1095C18.1871 11.3915 18.5049 11.726 18.7744 12.0967C19.0399 12.4674 19.2531 12.8825 19.3939 13.3459C19.4623 13.5796 19.5146 13.8213 19.5427 14.0833C19.5548 14.2162 19.5629 14.3492 19.5629 14.4903C19.5629 14.6313 19.5548 14.7804 19.5266 14.9416C19.3657 14.9174 19.2249 14.8771 19.0882 14.8328C18.9554 14.7884 18.8267 14.7361 18.71 14.6837C18.4727 14.5708 18.2554 14.4459 18.0583 14.3049C17.6681 14.0228 17.3463 13.6884 17.0808 13.3136C16.8153 12.9389 16.6061 12.5279 16.4653 12.0645C16.3969 11.8307 16.3446 11.589 16.3164 11.3271C16.3044 11.1941 16.2963 11.0611 16.2963 10.9201C16.2923 10.771 16.3004 10.6259 16.3285 10.4647Z" fill="#F9ED32"/>
<path d="M20.6168 7.06787C20.7697 7.12026 20.9024 7.18473 21.0271 7.25323C21.1518 7.32173 21.2645 7.39024 21.3731 7.4668C21.5903 7.61589 21.7794 7.7811 21.9483 7.95034C22.2863 8.29688 22.5477 8.67969 22.7449 9.09071C22.942 9.50172 23.0828 9.94497 23.1431 10.4245C23.1713 10.6663 23.1793 10.9161 23.1632 11.178C23.1552 11.311 23.1391 11.444 23.1109 11.585C23.0868 11.726 23.0506 11.8671 22.9983 12.0202C22.8454 11.9678 22.7127 11.9033 22.588 11.8389C22.4633 11.7704 22.3466 11.7019 22.238 11.6253C22.0207 11.4762 21.8317 11.311 21.6627 11.1417C21.3248 10.7952 21.0673 10.4124 20.8662 9.99736C20.6691 9.58231 20.5323 9.14309 20.472 8.65954C20.4438 8.41777 20.4358 8.16794 20.4519 7.90602C20.4599 7.77304 20.476 7.64007 20.5001 7.49903C20.5283 7.36203 20.5605 7.22099 20.6168 7.06787Z" fill="#F9ED32"/>
<path d="M10.9138 12.7857C11.0747 12.7736 11.2236 12.7817 11.3644 12.7938C11.5052 12.8059 11.6379 12.83 11.7667 12.8542C12.0241 12.9066 12.2615 12.9832 12.4867 13.0759C12.9333 13.2612 13.3195 13.5151 13.6654 13.8133C14.0114 14.1155 14.3091 14.4701 14.5504 14.8891C14.6711 15.0987 14.7757 15.3243 14.8602 15.5742C14.9044 15.6991 14.9406 15.828 14.9728 15.9691C15.005 16.1061 15.0291 16.2511 15.0372 16.4163C14.8763 16.4284 14.7274 16.4204 14.5866 16.4083C14.4458 16.3962 14.3131 16.3761 14.1844 16.3478C13.9269 16.2955 13.6896 16.2189 13.4643 16.1262C13.0178 15.9409 12.6316 15.687 12.2856 15.3848C11.9437 15.0826 11.642 14.728 11.4046 14.3089C11.2839 14.0994 11.1793 13.8737 11.0908 13.6239C11.0466 13.499 11.0104 13.37 10.9782 13.233C10.95 13.092 10.9219 12.9469 10.9138 12.7857Z" fill="#F9ED32"/>
<path d="M8.58862 18.4271C8.73747 18.3586 8.87826 18.3183 9.01504 18.2821C9.15181 18.2458 9.28457 18.2216 9.4133 18.2015C9.67478 18.1652 9.92419 18.1531 10.1656 18.1612C10.6483 18.1813 11.0988 18.282 11.5253 18.4473C11.9517 18.6125 12.354 18.8422 12.7241 19.1524C12.9091 19.3096 13.0861 19.4869 13.251 19.6884C13.3355 19.7891 13.416 19.9019 13.4924 20.0188C13.5688 20.1397 13.6413 20.2646 13.7056 20.4137C13.5568 20.4822 13.416 20.5265 13.2792 20.5628C13.1424 20.599 13.0097 20.6272 12.8809 20.6434C12.6195 20.6837 12.37 20.6917 12.1287 20.6837C11.6459 20.6635 11.1954 20.5587 10.769 20.3935C10.3426 20.2283 9.94028 19.9986 9.57018 19.6884C9.38514 19.5312 9.20813 19.3539 9.0432 19.1524C8.95872 19.0517 8.87826 18.9389 8.80183 18.822C8.7254 18.7052 8.65299 18.5802 8.58862 18.4271Z" fill="#F9ED32"/>
<path d="M6.61757 14.0753C6.77446 14.0309 6.91928 14.0108 7.06008 13.9947C7.20087 13.9826 7.33765 13.9745 7.46638 13.9745C7.72786 13.9785 7.97727 14.0027 8.21462 14.0511C8.68931 14.1438 9.11975 14.317 9.51398 14.5467C9.91224 14.7764 10.2743 15.0625 10.5921 15.4252C10.753 15.6065 10.8978 15.808 11.0306 16.0376C11.0949 16.1505 11.1593 16.2714 11.2156 16.4003C11.2719 16.5293 11.3242 16.6663 11.3685 16.8234C11.2116 16.8677 11.0668 16.8879 10.926 16.904C10.7852 16.9201 10.6484 16.9241 10.5197 16.9241C10.2582 16.9201 10.0088 16.8959 9.77144 16.8476C9.29675 16.7509 8.86631 16.5816 8.47208 16.352C8.07784 16.1223 7.71579 15.8321 7.39799 15.4695C7.23708 15.2882 7.09226 15.0867 6.95951 14.857C6.89112 14.7442 6.83078 14.6233 6.77446 14.4943C6.71009 14.3694 6.6578 14.2324 6.61757 14.0753Z" fill="#F9ED32"/>
<path d="M11.9959 8.70386C12.1568 8.71998 12.3017 8.75221 12.4384 8.79251C12.5752 8.82878 12.7039 8.8731 12.8246 8.92146C13.07 9.01816 13.2913 9.13502 13.4924 9.26397C13.8987 9.52589 14.2366 9.84019 14.5263 10.1988C14.8119 10.5575 15.0452 10.9564 15.2101 11.4117C15.2906 11.6374 15.355 11.8832 15.3952 12.1411C15.4153 12.27 15.4314 12.407 15.4354 12.5481C15.4394 12.6891 15.4435 12.8382 15.4234 12.9994C15.2624 12.9832 15.1176 12.951 14.9808 12.9147C14.8441 12.8785 14.7153 12.8341 14.5947 12.7858C14.3493 12.6891 14.128 12.5722 13.9269 12.4433C13.5206 12.1814 13.1827 11.8671 12.897 11.5084C12.6114 11.1498 12.3781 10.7509 12.2172 10.2955C12.1367 10.0699 12.0724 9.82408 12.0281 9.56618C12.008 9.43724 11.9919 9.30023 11.9879 9.1592C11.9758 9.01011 11.9758 8.86504 11.9959 8.70386Z" fill="#F9ED32"/>
<path d="M16.5336 5.48426C16.6905 5.52456 16.8273 5.57694 16.956 5.63336C17.0848 5.68977 17.2054 5.75424 17.3181 5.81872C17.5474 5.95169 17.7485 6.09675 17.9295 6.25391C18.2956 6.57224 18.5853 6.93087 18.8186 7.32577C19.0519 7.72066 19.2249 8.15182 19.3214 8.62328C19.3697 8.86102 19.3979 9.11086 19.4019 9.37278C19.4019 9.50575 19.3979 9.63873 19.3858 9.77976C19.3697 9.9208 19.3496 10.0659 19.3094 10.223C19.1525 10.1827 19.0157 10.1303 18.8829 10.0739C18.7542 10.0175 18.6335 9.95706 18.5169 9.88856C18.2876 9.75558 18.0864 9.61052 17.9054 9.45337C17.5393 9.13503 17.2497 8.7764 17.0204 8.37748C16.7911 7.98258 16.6181 7.55142 16.5216 7.07594C16.4733 6.83819 16.4451 6.58836 16.4411 6.32644C16.4411 6.19346 16.4451 6.06049 16.4572 5.91945C16.4733 5.78648 16.4934 5.64142 16.5336 5.48426Z" fill="#F9ED32"/>
<path d="M23.666 2.76429C23.7988 2.861 23.9034 2.96174 24.004 3.06248C24.1005 3.16322 24.189 3.26798 24.2695 3.37275C24.4304 3.58229 24.5631 3.79183 24.6717 4.00942C24.893 4.44058 25.0257 4.88383 25.0901 5.33917C25.1585 5.79451 25.1545 6.25388 25.07 6.7334C25.0257 6.97114 24.9574 7.21291 24.8648 7.45872C24.8166 7.5796 24.7602 7.70452 24.6959 7.82944C24.6275 7.95435 24.5551 8.0833 24.4585 8.21224C24.3258 8.11553 24.2212 8.01479 24.1206 7.91406C24.0241 7.81332 23.9315 7.70855 23.8511 7.60781C23.6902 7.39827 23.5574 7.18874 23.4448 6.97114C23.2235 6.53998 23.0948 6.09673 23.0264 5.64139C22.9621 5.18605 22.9621 4.72265 23.0506 4.24716C23.0948 4.00942 23.1632 3.76765 23.2557 3.52185C23.304 3.40096 23.3603 3.27604 23.4247 3.15113C23.4931 3.02218 23.5695 2.89324 23.666 2.76429Z" fill="#F9ED32"/>
<path d="M3.76929 20.3895C3.90606 20.3009 4.03881 20.2364 4.16754 20.18C4.29627 20.1236 4.425 20.0792 4.54971 20.0389C4.80315 19.9624 5.04451 19.914 5.28588 19.8858C5.76459 19.8334 6.22722 19.8657 6.67375 19.9624C7.12028 20.0591 7.55474 20.2243 7.96506 20.4782C8.17023 20.6031 8.37137 20.7522 8.56848 20.9295C8.66503 21.0181 8.76158 21.1148 8.8541 21.2196C8.94663 21.3284 9.03915 21.4412 9.12765 21.5782C8.99088 21.6669 8.85812 21.7314 8.72939 21.7878C8.60067 21.8442 8.47194 21.8925 8.34723 21.9288C8.09379 22.0054 7.85243 22.0537 7.61106 22.0819C7.13234 22.1343 6.66972 22.1021 6.22319 22.0013C5.77666 21.9006 5.34622 21.7354 4.93188 21.4856C4.72671 21.3606 4.52557 21.2115 4.32846 21.0342C4.23191 20.9456 4.13536 20.8489 4.04284 20.7441C3.95031 20.6393 3.85779 20.5265 3.76929 20.3895Z" fill="#F9ED32"/>
<path d="M45.3047 22.4124C45.1639 22.3278 45.0311 22.2674 44.9024 22.215C44.7696 22.1626 44.6449 22.1183 44.5162 22.082C44.2628 22.0095 44.0174 21.9692 43.776 21.949C43.2933 21.9087 42.8347 21.9531 42.3881 22.0619C41.9456 22.1707 41.5152 22.348 41.1089 22.6059C40.9037 22.7348 40.7066 22.892 40.5175 23.0733C40.421 23.166 40.3285 23.2627 40.236 23.3715C40.1434 23.4803 40.0549 23.5971 39.9745 23.7382C40.1153 23.8228 40.248 23.8832 40.3768 23.9396C40.5095 23.992 40.6382 24.0364 40.7629 24.0726C41.0164 24.1452 41.2618 24.1854 41.5031 24.2096C41.9859 24.2499 42.4445 24.2056 42.887 24.0928C43.3295 23.9799 43.7599 23.8067 44.1662 23.5447C44.3714 23.4158 44.5685 23.2627 44.7576 23.0813C44.8541 22.9887 44.9466 22.892 45.0392 22.7832C45.1317 22.6663 45.2242 22.5535 45.3047 22.4124Z" fill="#D4BE29"/>
<path d="M45.55 28.231C45.4454 28.1061 45.3368 28.0094 45.2282 27.9167C45.1196 27.828 45.011 27.7434 44.9023 27.6709C44.6851 27.5258 44.4638 27.409 44.2386 27.3123C43.792 27.1229 43.3415 27.0221 42.8869 26.9899C42.4323 26.9577 41.9697 26.9899 41.5031 27.1108C41.2697 27.1712 41.0324 27.2558 40.7951 27.3687C40.6744 27.4251 40.5577 27.4896 40.437 27.5661C40.3163 27.6427 40.1957 27.7233 40.075 27.8321C40.1796 27.957 40.2882 28.0577 40.3968 28.1464C40.5054 28.2391 40.614 28.3196 40.7226 28.3922C40.9399 28.5372 41.1611 28.6581 41.3864 28.7508C41.8329 28.9402 42.2835 29.0369 42.7381 29.0732C43.1926 29.1054 43.6553 29.0691 44.1219 28.9483C44.3552 28.8878 44.5926 28.8032 44.8299 28.6904C44.9506 28.6339 45.0673 28.5695 45.188 28.4969C45.3086 28.4204 45.4293 28.3398 45.55 28.231Z" fill="#D4BE29"/>
<path d="M42.0422 25.773C41.9215 25.6642 41.8009 25.5796 41.6802 25.503C41.5595 25.4265 41.4428 25.362 41.3221 25.3056C41.0848 25.1887 40.8515 25.1041 40.6182 25.0396C40.1515 24.9147 39.6889 24.8744 39.2343 24.9026C38.7757 24.9308 38.3252 25.0275 37.8786 25.2129C37.6534 25.3056 37.4321 25.4224 37.2149 25.5635C37.1063 25.636 36.9936 25.7166 36.885 25.8052C36.7764 25.8979 36.6678 25.9946 36.5592 26.1195C36.6798 26.2283 36.8005 26.313 36.9212 26.3895C37.0419 26.4661 37.1586 26.5306 37.2792 26.587C37.5166 26.7038 37.7499 26.7885 37.9832 26.8529C38.4499 26.9778 38.9125 27.0181 39.3671 26.9859C39.8257 26.9537 40.2762 26.857 40.7227 26.6756C40.948 26.5829 41.1693 26.4661 41.3865 26.3251C41.4951 26.2525 41.6078 26.1719 41.7164 26.0833C41.829 25.9906 41.9376 25.8939 42.0422 25.773Z" fill="#009444"/>
<path d="M41.6601 30.4191C41.5676 30.2861 41.471 30.1773 41.3705 30.0726C41.2739 29.9718 41.1733 29.8792 41.0688 29.7945C40.8676 29.6253 40.6584 29.4883 40.4452 29.3714C40.0228 29.1377 39.5843 28.9927 39.1338 28.9121C38.6832 28.8315 38.2206 28.8194 37.7419 28.8919C37.5046 28.9282 37.2592 28.9886 37.0138 29.0773C36.8891 29.1216 36.7644 29.174 36.6356 29.2344C36.5069 29.2989 36.3782 29.3674 36.2454 29.4641C36.3379 29.5971 36.4345 29.7099 36.531 29.8106C36.6276 29.9114 36.7282 30.0041 36.8287 30.0887C37.0299 30.2579 37.2391 30.3949 37.4523 30.5118C37.8747 30.7455 38.3131 30.8906 38.7677 30.9671C39.2183 31.0437 39.6809 31.0598 40.1596 30.9832C40.3969 30.947 40.6423 30.8865 40.8877 30.7979C41.0124 30.7536 41.1371 30.7012 41.2659 30.6407C41.3986 30.5843 41.5274 30.5158 41.6601 30.4191Z" fill="#009444"/>
<path d="M48.5913 14.0753C48.4344 14.0309 48.2896 14.0108 48.1488 13.9947C48.008 13.9826 47.8712 13.9745 47.7425 13.9745C47.481 13.9785 47.2316 14.0027 46.9942 14.0511C46.5195 14.1438 46.0891 14.317 45.6949 14.5467C45.2966 14.7764 44.9346 15.0625 44.6168 15.4252C44.4558 15.6065 44.311 15.808 44.1783 16.0376C44.1139 16.1505 44.0495 16.2714 43.9932 16.4003C43.9369 16.5293 43.8846 16.6663 43.8404 16.8234C43.9973 16.8677 44.1421 16.8879 44.2829 16.904C44.4237 16.9201 44.5604 16.9241 44.6892 16.9241C44.9507 16.9201 45.2001 16.8959 45.4374 16.8476C45.9121 16.7509 46.3425 16.5816 46.7368 16.352C47.131 16.1223 47.4931 15.8321 47.8109 15.4695C47.9718 15.2882 48.1166 15.0867 48.2493 14.857C48.3177 14.7442 48.3781 14.6233 48.4344 14.4943C48.4988 14.3694 48.5511 14.2324 48.5913 14.0753Z" fill="#F9ED32"/>
<path d="M43.2127 8.70386C43.0518 8.71998 42.907 8.75221 42.7702 8.79251C42.6334 8.82878 42.5047 8.8731 42.384 8.92146C42.1386 9.01816 41.9174 9.13502 41.7162 9.26397C41.3099 9.52589 40.972 9.84019 40.6824 10.1988C40.3968 10.5575 40.1634 10.9564 39.9985 11.4117C39.9181 11.6374 39.8537 11.8832 39.8135 12.1411C39.7933 12.27 39.7773 12.407 39.7732 12.5481C39.7692 12.6891 39.7652 12.8382 39.7853 12.9994C39.9462 12.9832 40.091 12.951 40.2278 12.9147C40.3646 12.8785 40.4933 12.8341 40.614 12.7858C40.8594 12.6891 41.0806 12.5722 41.2818 12.4433C41.6881 12.1814 42.026 11.8671 42.3116 11.5084C42.5972 11.1498 42.8306 10.7509 42.9915 10.2955C43.0719 10.0699 43.1363 9.82408 43.1805 9.56618C43.2007 9.43724 43.2168 9.30023 43.2208 9.1592C43.2328 9.01011 43.2328 8.86504 43.2127 8.70386Z" fill="#F9ED32"/>
<path d="M38.6751 5.48426C38.5183 5.52456 38.3815 5.57694 38.2528 5.63336C38.124 5.68977 38.0033 5.75424 37.8907 5.81872C37.6614 5.95169 37.4603 6.09675 37.2792 6.25391C36.9132 6.57224 36.6235 6.93087 36.3902 7.32577C36.1569 7.72066 35.9839 8.15182 35.8874 8.62328C35.8391 8.86102 35.8109 9.11086 35.8069 9.37278C35.8069 9.50575 35.8109 9.63873 35.823 9.77976C35.8391 9.9208 35.8592 10.0659 35.8994 10.223C36.0563 10.1827 36.1931 10.1303 36.3258 10.0739C36.4546 10.0175 36.5753 9.95706 36.6919 9.88856C36.9212 9.75558 37.1224 9.61052 37.3034 9.45337C37.6695 9.13503 37.9591 8.7764 38.1884 8.37748C38.4177 7.98258 38.5907 7.55142 38.6872 7.07594C38.7355 6.83819 38.7636 6.58836 38.7677 6.32644C38.7677 6.19346 38.7636 6.06049 38.7516 5.91945C38.7355 5.78648 38.7154 5.64142 38.6751 5.48426Z" fill="#F9ED32"/>
<path d="M31.5427 2.76429C31.41 2.861 31.3054 2.96174 31.2048 3.06248C31.1083 3.16322 31.0197 3.26798 30.9393 3.37275C30.7784 3.58229 30.6456 3.79183 30.537 4.00942C30.3158 4.44058 30.183 4.88383 30.1186 5.33917C30.0503 5.79451 30.0543 6.25388 30.1388 6.7334C30.183 6.97114 30.2514 7.21291 30.3439 7.45872C30.3922 7.5796 30.4485 7.70452 30.5129 7.82944C30.5813 7.95435 30.6537 8.0833 30.7502 8.21224C30.883 8.11553 30.9876 8.01479 31.0881 7.91406C31.1847 7.81332 31.2772 7.70855 31.3577 7.60781C31.5186 7.39827 31.6513 7.18874 31.764 6.97114C31.9852 6.53998 32.114 6.09673 32.1823 5.64139C32.2467 5.18605 32.2467 4.72265 32.1582 4.24716C32.114 4.00942 32.0456 3.76765 31.953 3.52185C31.9048 3.40096 31.8484 3.27604 31.7841 3.15113C31.7117 3.02218 31.6393 2.89324 31.5427 2.76429Z" fill="#F9ED32"/>
<path d="M51.4355 20.3895C51.2987 20.3009 51.166 20.2364 51.0372 20.18C50.9085 20.1236 50.7798 20.0792 50.6551 20.0389C50.4056 19.9624 50.1603 19.914 49.9189 19.8858C49.4402 19.8334 48.9776 19.8657 48.531 19.9624C48.0845 20.0591 47.65 20.2243 47.2397 20.4782C47.0346 20.6031 46.8334 20.7522 46.6363 20.9295C46.5397 21.0181 46.4432 21.1148 46.3507 21.2196C46.2581 21.3284 46.1656 21.4412 46.0771 21.5782C46.2139 21.6669 46.3467 21.7314 46.4754 21.7878C46.6041 21.8442 46.7328 21.8925 46.8575 21.9288C47.111 22.0054 47.3523 22.0537 47.5937 22.0819C48.0724 22.1343 48.5351 22.1021 48.9816 22.0013C49.4281 21.9006 49.8585 21.7354 50.2729 21.4856C50.4781 21.3606 50.6792 21.2115 50.8763 21.0342C50.9729 20.9456 51.0694 20.8489 51.1619 20.7441C51.2585 20.6393 51.351 20.5265 51.4355 20.3895Z" fill="#F9ED32"/>
<path d="M52.0066 29.4681C51.9221 29.3311 51.8296 29.2143 51.7371 29.1055C51.6445 29.0007 51.548 28.904 51.4514 28.8113C51.2583 28.634 51.0572 28.4809 50.852 28.356C50.4417 28.1021 50.0113 27.9329 49.5647 27.8241C49.1182 27.7193 48.6596 27.683 48.1769 27.7274C47.9355 27.7515 47.6901 27.7999 47.4367 27.8724C47.312 27.9087 47.1833 27.957 47.0505 28.0094C46.9218 28.0658 46.789 28.1263 46.6482 28.2149C46.7327 28.356 46.8252 28.4688 46.9178 28.5776C47.0103 28.6824 47.1068 28.7831 47.2034 28.8718C47.3965 29.0491 47.5976 29.2022 47.8028 29.3271C48.2131 29.581 48.6435 29.7502 49.0901 29.855C49.5366 29.9557 49.9952 29.996 50.4779 29.9476C50.7193 29.9235 50.9647 29.8751 51.2181 29.8026C51.3428 29.7663 51.4715 29.718 51.6003 29.6656C51.7371 29.6172 51.8698 29.5568 52.0066 29.4681Z" fill="#F9ED32"/>
<path d="M49.8222 24.9953C49.7095 24.8785 49.5969 24.7858 49.4842 24.6972C49.3716 24.6125 49.259 24.536 49.1463 24.4715C48.9211 24.3385 48.6918 24.2338 48.4665 24.1491C48.0119 23.9839 47.5573 23.9114 47.0987 23.8993C46.6401 23.8912 46.1815 23.9477 45.7229 24.0968C45.4936 24.1693 45.2603 24.266 45.031 24.3949C44.9144 24.4594 44.8017 24.5279 44.6851 24.6125C44.5684 24.6931 44.4517 24.7818 44.3351 24.8986C44.4477 25.0155 44.5603 25.1122 44.673 25.1968C44.7856 25.2814 44.8983 25.358 45.0109 25.4225C45.2362 25.5554 45.4655 25.6602 45.6908 25.7448C46.1453 25.91 46.5999 25.9826 47.0585 25.9906C47.5171 25.9987 47.9757 25.9383 48.4343 25.7892C48.6636 25.7166 48.8969 25.6199 49.1262 25.491C49.2429 25.4265 49.3555 25.358 49.4722 25.2774C49.5929 25.1968 49.7095 25.1082 49.8222 24.9953Z" fill="#F9ED32"/>
<path d="M48.0322 31.8979C47.9598 31.7528 47.8793 31.6319 47.7948 31.5151C47.7103 31.4022 47.6259 31.2975 47.5374 31.1967C47.3604 31.0033 47.1753 30.8341 46.9822 30.689C46.596 30.3989 46.1817 30.1894 45.7472 30.0483C45.3128 29.9033 44.8582 29.8267 44.3754 29.8307C44.1341 29.8348 43.8847 29.8589 43.6272 29.9113C43.4985 29.9395 43.3657 29.9718 43.233 30.0161C43.0962 30.0604 42.9594 30.1128 42.8146 30.1853C42.887 30.3304 42.9675 30.4553 43.0479 30.5681C43.1324 30.681 43.2169 30.7898 43.3054 30.8865C43.4824 31.0799 43.6674 31.2491 43.8605 31.3942C44.2467 31.6843 44.6611 31.8898 45.0955 32.0349C45.53 32.1759 45.9846 32.2565 46.4713 32.2485C46.7127 32.2444 46.9621 32.2202 47.2196 32.1679C47.3483 32.1437 47.481 32.1074 47.6138 32.0671C47.7506 32.0228 47.8873 31.9744 48.0322 31.8979Z" fill="#F9ED32"/>
<path d="M10.238 28.231C10.3426 28.1061 10.4512 28.0094 10.5598 27.9167C10.6684 27.828 10.777 27.7434 10.8856 27.6709C11.1029 27.5258 11.3241 27.409 11.5494 27.3123C11.9959 27.1229 12.4465 27.0221 12.9011 26.9899C13.3556 26.9577 13.8183 26.9899 14.2849 27.1108C14.5182 27.1712 14.7556 27.2558 14.9929 27.3687C15.1136 27.4251 15.2303 27.4896 15.3509 27.5661C15.4716 27.6427 15.5923 27.7233 15.713 27.8321C15.6084 27.957 15.4998 28.0577 15.3912 28.1464C15.2825 28.2391 15.1739 28.3196 15.0653 28.3922C14.8481 28.5372 14.6268 28.6581 14.4016 28.7508C13.955 28.9402 13.5045 29.0369 13.0499 29.0732C12.5953 29.1054 12.1327 29.0691 11.6661 28.9483C11.4327 28.8878 11.1954 28.8032 10.958 28.6904C10.8374 28.6339 10.7207 28.5695 10.6 28.4969C10.4834 28.4204 10.3627 28.3398 10.238 28.231Z" fill="#D4BE29"/>
<path d="M14.132 30.4191C14.2246 30.2861 14.3211 30.1773 14.4217 30.0726C14.5182 29.9718 14.6188 29.8792 14.7234 29.7945C14.9245 29.6253 15.1337 29.4883 15.3469 29.3714C15.7693 29.1377 16.2078 28.9927 16.6584 28.9121C17.1089 28.8315 17.5715 28.8194 18.0502 28.8919C18.2876 28.9282 18.533 28.9886 18.7784 29.0773C18.9031 29.1216 19.0278 29.174 19.1565 29.2344C19.2852 29.2989 19.414 29.3674 19.5467 29.4641C19.4542 29.5971 19.3576 29.7099 19.2611 29.8106C19.1646 29.9114 19.064 30.0041 18.9634 30.0887C18.7623 30.2579 18.5531 30.3949 18.3399 30.5118C17.9175 30.7455 17.479 30.8906 17.0244 30.9671C16.5739 31.0437 16.1113 31.0598 15.6325 30.9832C15.3952 30.947 15.1498 30.8865 14.9044 30.7979C14.7797 30.7536 14.655 30.7012 14.5263 30.6407C14.3935 30.5843 14.2648 30.5158 14.132 30.4191Z" fill="#009444"/>
<path d="M3.78542 29.4681C3.86989 29.3311 3.96242 29.2143 4.05494 29.1055C4.14747 29.0007 4.24401 28.904 4.34056 28.8113C4.53366 28.634 4.7348 28.4809 4.93996 28.356C5.35028 28.1021 5.78072 27.9329 6.22725 27.8241C6.67378 27.7193 7.13238 27.683 7.61512 27.7274C7.85649 27.7515 8.10188 27.7999 8.35531 27.8724C8.48002 27.9087 8.60875 27.957 8.7415 28.0094C8.87023 28.0658 9.00298 28.1263 9.14378 28.2149C9.0593 28.356 8.96678 28.4688 8.87425 28.5776C8.78173 28.6824 8.68518 28.7831 8.58864 28.8718C8.39554 29.0491 8.1944 29.2022 7.98924 29.3271C7.57891 29.581 7.14847 29.7502 6.70194 29.855C6.25541 29.9557 5.79681 29.996 5.31408 29.9476C5.07271 29.9235 4.82732 29.8751 4.57388 29.8026C4.44918 29.7663 4.32045 29.718 4.19172 29.6656C4.05494 29.6172 3.92219 29.5568 3.78542 29.4681Z" fill="#F9ED32"/>
<path d="M7.75996 31.8979C7.83237 31.7528 7.91283 31.6319 7.99731 31.5151C8.08179 31.4022 8.16627 31.2975 8.25477 31.1967C8.43177 31.0033 8.61682 30.8341 8.80991 30.689C9.1961 30.3989 9.61045 30.1894 10.0449 30.0483C10.4794 29.9033 10.9339 29.8267 11.4167 29.8307C11.6581 29.8348 11.9075 29.8589 12.1649 29.9113C12.2937 29.9395 12.4264 29.9718 12.5592 30.0161C12.6959 30.0604 12.8327 30.1128 12.9775 30.1853C12.9051 30.3304 12.8247 30.4553 12.7442 30.5681C12.6597 30.681 12.5752 30.7898 12.4867 30.8865C12.3097 31.0799 12.1247 31.2491 11.9316 31.3942C11.5454 31.6843 11.1311 31.8898 10.6966 32.0349C10.2621 32.1759 9.80757 32.2565 9.32081 32.2485C9.07944 32.2444 8.83003 32.2202 8.57257 32.1679C8.44384 32.1437 8.31109 32.1074 8.17833 32.0671C8.04156 32.0228 7.90478 31.9744 7.75996 31.8979Z" fill="#F9ED32"/>
<path d="M13.1665 25.4909C13.2872 25.3821 13.4079 25.2975 13.5286 25.221C13.6493 25.1444 13.7659 25.0799 13.8866 25.0235C14.124 24.9066 14.3573 24.822 14.5906 24.7576C15.0573 24.6326 15.5199 24.5923 15.9744 24.6205C16.433 24.6488 16.8836 24.7455 17.3301 24.9308C17.5554 25.0235 17.7767 25.1404 17.9939 25.2814C18.1025 25.3539 18.2151 25.4345 18.3238 25.5232C18.4324 25.6158 18.541 25.7126 18.6496 25.8375C18.5289 25.9463 18.4082 26.0309 18.2876 26.1075C18.1669 26.184 18.0502 26.2485 17.9295 26.3049C17.6922 26.4218 17.4589 26.5064 17.2255 26.5709C16.7589 26.6958 16.2963 26.7361 15.8417 26.7038C15.3871 26.6716 14.9325 26.5749 14.486 26.3935C14.2607 26.3009 14.0395 26.184 13.8223 26.043C13.7136 25.9704 13.601 25.8899 13.4924 25.8012C13.3797 25.7126 13.2711 25.6158 13.1665 25.4909Z" fill="#009444"/>
<path d="M19.1646 23.6293C19.3175 23.5769 19.4623 23.5487 19.6031 23.5285C19.7439 23.5084 19.8766 23.4923 20.0094 23.4882C20.2709 23.4762 20.5203 23.4923 20.7617 23.5245C21.2404 23.593 21.6789 23.7421 22.0852 23.9476C22.4915 24.1571 22.8696 24.4231 23.2075 24.7696C23.3765 24.9429 23.5334 25.1363 23.6782 25.358C23.7506 25.4668 23.819 25.5836 23.8833 25.7126C23.9477 25.8415 24.0081 25.9745 24.0563 26.1276C23.8994 26.18 23.7586 26.2082 23.6178 26.2324C23.477 26.2525 23.3443 26.2686 23.2115 26.2727C22.9501 26.2848 22.7006 26.2727 22.4593 26.2364C21.9806 26.1679 21.5421 26.0188 21.1358 25.8093C20.7295 25.5997 20.3513 25.3297 20.0134 24.9832C19.8445 24.8099 19.6876 24.6165 19.5427 24.3949C19.4703 24.2861 19.4019 24.1692 19.3376 24.0403C19.2772 23.9194 19.2129 23.7864 19.1646 23.6293Z" fill="#1C442A"/>
<path d="M37.2631 27.5219C37.1303 27.4292 37.0016 27.3607 36.8729 27.3002C36.7441 27.2398 36.6194 27.1914 36.4947 27.1471C36.2453 27.0625 36.0039 27.0061 35.7626 26.9698C35.2839 26.9013 34.8212 26.9215 34.3707 27.0061C33.9201 27.0907 33.4857 27.2398 33.0633 27.4775C32.8541 27.5984 32.6489 27.7395 32.4478 27.9087C32.3472 27.9933 32.2507 28.086 32.1501 28.1908C32.0536 28.2955 31.957 28.4043 31.8685 28.5413C32.0013 28.634 32.13 28.7025 32.2587 28.763C32.3874 28.8234 32.5122 28.8758 32.6369 28.9161C32.8863 29.0007 33.1276 29.0571 33.369 29.0934C33.8477 29.1619 34.3103 29.1418 34.7609 29.0571C35.2114 28.9725 35.6459 28.8194 36.0683 28.5816C36.2775 28.4608 36.4827 28.3197 36.6838 28.1505C36.7844 28.0659 36.8849 27.9732 36.9815 27.8684C37.078 27.7677 37.1705 27.6589 37.2631 27.5219Z" fill="#1C442A"/>
<path d="M36.4665 23.6454C36.3137 23.593 36.1688 23.5648 36.028 23.5447C35.8872 23.5245 35.7545 23.5084 35.6217 23.5044C35.3602 23.4923 35.1108 23.5084 34.8695 23.5406C34.3908 23.6091 33.9523 23.7582 33.546 23.9637C33.1397 24.1733 32.7615 24.4392 32.4236 24.7858C32.2547 24.959 32.0978 25.1525 31.9529 25.3741C31.8805 25.4829 31.8121 25.5997 31.7478 25.7287C31.6834 25.8576 31.6231 25.9906 31.5748 26.1437C31.7317 26.1961 31.8725 26.2243 32.0133 26.2485C32.1541 26.2686 32.2868 26.2848 32.4196 26.2888C32.6811 26.3009 32.9305 26.2888 33.1718 26.2525C33.6506 26.184 34.089 26.0349 34.4953 25.8254C34.9017 25.6159 35.2798 25.3459 35.6177 24.9993C35.7867 24.8261 35.9436 24.6326 36.0884 24.411C36.1608 24.3022 36.2292 24.1854 36.2935 24.0564C36.3579 23.9315 36.4182 23.7985 36.4665 23.6454Z" fill="#1C442A"/>
<path d="M5.38228 24.7132C5.49492 24.5964 5.60755 24.5037 5.72019 24.415C5.83283 24.3304 5.94547 24.2539 6.05811 24.1894C6.28339 24.0564 6.51268 23.9516 6.73796 23.867C7.19254 23.7018 7.64711 23.6293 8.10571 23.6172C8.56431 23.6091 9.02291 23.6655 9.48151 23.8146C9.71081 23.8872 9.94413 23.9839 10.1734 24.1128C10.2901 24.1773 10.4027 24.2458 10.5194 24.3304C10.6361 24.411 10.7527 24.4997 10.8694 24.6165C10.7567 24.7334 10.6441 24.8301 10.5315 24.9147C10.4188 24.9993 10.3062 25.0759 10.1935 25.1404C9.96827 25.2733 9.73897 25.3781 9.51369 25.4627C9.05911 25.6279 8.60454 25.7005 8.14594 25.7085C7.68734 25.7166 7.22874 25.6561 6.77014 25.507C6.54084 25.4345 6.30752 25.3378 6.07822 25.2089C5.96156 25.1444 5.84892 25.0759 5.73226 24.9953C5.6156 24.9147 5.49894 24.826 5.38228 24.7132Z" fill="#F9ED32"/>
</svg>
